<svg width="19" height="15" viewBox="0 0 19 15" fill="none" xmlns="http://www.w3.org/2000/svg">
<path d="M3.91101 0C2.83661 0 2.04156 0.940387 2.07716 1.96021C2.11137 2.93995 2.06694 4.20898 1.74749 5.24381C1.42709 6.28165 0.885148 6.93908 0 7.02352V7.97648C0.885148 8.06092 1.42709 8.71835 1.74749 9.75627C2.06694 10.7911 2.11137 12.06 2.07716 13.0398C2.04156 14.0595 2.83661 15 3.91116 15H14.9202C15.9947 15 16.7895 14.0596 16.7539 13.0398C16.7198 12.06 16.7641 10.7911 17.0836 9.75627C17.4042 8.71842 17.9447 8.06085 18.8298 7.97648V7.02352C17.9447 6.93908 17.4042 6.28165 17.0836 5.24381C16.7641 4.20912 16.7198 2.94002 16.7539 1.96021C16.7895 0.940534 15.9947 0 14.9202 0H3.91086H3.91101ZM12.766 9.23345C12.766 10.6377 11.7186 11.4893 9.98039 11.4893H7.02131C6.93668 11.4893 6.85552 11.4557 6.79568 11.3958C6.73585 11.336 6.70223 11.2548 6.70223 11.1702V3.82981C6.70222 3.78789 6.71047 3.74638 6.72651 3.70765C6.74254 3.66892 6.76605 3.63373 6.79568 3.60408C6.82532 3.57444 6.86051 3.55093 6.89923 3.53488C6.93796 3.51884 6.97947 3.51058 7.02138 3.51058H9.96347C11.4128 3.51058 12.364 4.29577 12.364 5.50117C12.364 6.34726 11.7241 7.10472 10.9089 7.23734V7.28154C12.0188 7.40328 12.766 8.17184 12.766 9.23345ZM9.65763 4.52232H7.97052V6.90546H9.39159C10.49 6.90546 11.0958 6.46311 11.0958 5.67241C11.0958 4.9315 10.5748 4.52232 9.65763 4.52232ZM7.97052 7.85107V10.4773H9.71978C10.8634 10.4773 11.4693 10.0184 11.4693 9.15592C11.4693 8.29328 10.8466 7.85093 9.64623 7.85093H7.97052V7.85107Z" fill="#7E13F8"/>
</svg>
