<svg width="15" height="15" viewBox="0 0 15 15" fill="none" xmlns="http://www.w3.org/2000/svg">
<path d="M0 0H15V15H0V0Z" fill="#F0DB4F"/>
<path d="M13.7723 11.4225C13.6625 10.7381 13.2163 10.1635 11.8945 9.62735C11.4354 9.41633 10.9235 9.2652 10.7709 8.91728C10.7167 8.71481 10.7096 8.60074 10.7438 8.47811C10.8422 8.0803 11.317 7.95625 11.6934 8.07032C11.9358 8.15159 12.1654 8.33839 12.3037 8.63638C12.951 8.2172 12.9496 8.22003 13.4016 7.93203C13.2362 7.67537 13.1478 7.55701 13.0394 7.44724C12.6502 7.01235 12.1198 6.78849 11.2714 6.8056C11.1245 6.82414 10.9762 6.84408 10.8294 6.86263C10.4059 6.96957 10.0024 7.19201 9.76568 7.49001C9.05561 8.29562 9.25808 9.70578 10.1221 10.2861C10.9734 10.9249 12.2239 11.0703 12.3836 11.6678C12.539 12.3992 11.846 12.6359 11.1573 12.5518C10.6497 12.4463 10.3674 12.1882 10.0623 11.7191C9.50049 12.0442 9.50049 12.0442 8.92302 12.3764C9.0599 12.6758 9.2039 12.8113 9.43347 13.0708C10.52 14.173 13.2391 14.1188 13.7267 12.4506C13.7467 12.3935 13.8779 12.0114 13.7723 11.4225ZM8.15447 6.89399H6.75142C6.75142 8.10597 6.74574 9.30939 6.74574 10.5214C6.74574 11.2928 6.78566 12 6.66018 12.2167C6.45486 12.643 5.92302 12.5903 5.68062 12.5076C5.43395 12.3864 5.30847 12.2138 5.16304 11.97C5.12311 11.9002 5.09317 11.846 5.08317 11.8417C4.70248 12.0741 4.32319 12.3079 3.94249 12.5404C4.13214 12.9296 4.4116 13.2676 4.76949 13.4871C5.30418 13.8079 6.02281 13.9063 6.77425 13.7338C7.26332 13.5912 7.68536 13.2961 7.90637 12.8469C8.22576 12.2581 8.15732 11.5451 8.15447 10.7566C8.1616 9.47051 8.15447 8.18439 8.15447 6.89399Z" fill="#323330"/>
</svg>
